PathFileType	4	(X/Y/Z)	/Users/itak/Documents/Research/Walk-IL/dataset/trc/00368_00011.trc
DataRate	CameraRate	NumFrames	NumMarkers	Units	OrigDataRate	OrigDataStartFrame	OrigNumFrames
100.000000	100.000000	4	61	mm	100.000000	278	557
Frame#	Time	LPSI			L3			STRN			T10			C7			CLAV			RBAK			LBAK			LSHO			LUPA			LAEL			LAOL			LWTS			LWPS			LFRA			LHPS			LHTS			RSHO			RUPA			RAEL			RAOL			RWTS			RWPS			RFRA			RIFD			RHTS			RBHD			LFHD			RFHD			LBHD			LHIP			RHIP			RASI			LASI			LKNE			LANK			LTIP			LTOE			LMT1			LMT5			LHEE			RKNE			RTHI			RANK			RTIP			RTOE			RMT1			RMT5			RHEE			RPSI			RHPS			LTHI			LIFD			*53			*54			*55			*56			*57			*58			*59			*60			
		X1	Y1	Z1	X2	Y2	Z2	X3	Y3	Z3	X4	Y4	Z4	X5	Y5	Z5	X6	Y6	Z6	X7	Y7	Z7	X8	Y8	Z8	X9	Y9	Z9	X10	Y10	Z10	X11	Y11	Z11	X12	Y12	Z12	X13	Y13	Z13	X14	Y14	Z14	X15	Y15	Z15	X16	Y16	Z16	X17	Y17	Z17	X18	Y18	Z18	X19	Y19	Z19	X20	Y20	Z20	X21	Y21	Z21	X22	Y22	Z22	X23	Y23	Z23	X24	Y24	Z24	X25	Y25	Z25	X26	Y26	Z26	X27	Y27	Z27	X28	Y28	Z28	X29	Y29	Z29	X30	Y30	Z30	X31	Y31	Z31	X32	Y32	Z32	X33	Y33	Z33	X34	Y34	Z34	X35	Y35	Z35	X36	Y36	Z36	X37	Y37	Z37	X38	Y38	Z38	X39	Y39	Z39	X40	Y40	Z40	X41	Y41	Z41	X42	Y42	Z42	X43	Y43	Z43	X44	Y44	Z44	X45	Y45	Z45	X46	Y46	Z46	X47	Y47	Z47	X48	Y48	Z48	X49	Y49	Z49	X50	Y50	Z50	X51	Y51	Z51	X52	Y52	Z52	X53	Y53	Z53	X54	Y54	Z54	X55	Y55	Z55	X56	Y56	Z56	X57	Y57	Z57	X58	Y58	Z58	X59	Y59	Z59	X60	Y60	Z60	X61	Y61	Z61	

279	2.78	-682.9400634765625	953.1829833984375	-126.5209045410156	-722.7740478515625	1009.931518554688	-60.80659866333008	-512.6280517578125	1200.659790039062	38.95610046386719	-734.8248291015625	1131.43017578125	-68.62384796142578	-688.80322265625	1379.405639648438	-58.36081314086914	-551.5079345703125	1325.693115234375	16.90482139587402	-759.4053344726562	1239.050903320312	-18.7429313659668	-653.9943237304688	1343.79833984375	-153.2816619873047	-553.0040283203125	1362.376098632812	-166.6396789550781	-548.6100463867188	1243.55859375	-238.986572265625	-543.8145141601562	1039.770874023438	-250.9196166992188	-622.046142578125	1029.838989257812	-218.2190551757812	-474.3970031738281	793.6571655273438	-183.5297546386719	-495.1242980957031	784.5794677734375	-248.8061218261719	-531.163330078125	934.4735717773438	-255.9053039550781	-503.4967346191406	714.7020263671875	-245.6868896484375	-461.5408935546875	714.1812133789062	-196.3525238037109	-712.2493286132812	1367.940063476562	111.8602142333984	-746.145263671875	1303.2900390625	165.2602844238281	-720.8772583007812	1045.696655273438	243.2265930175781	-724.5596923828125	1023.403076171875	151.6619720458984	-523.077880859375	885.4671020507812	258.2691345214844	-565.824951171875	855.1550903320312	315.7212219238281	-680.75634765625	990.4296264648438	269.6317749023438	-438.2145690917969	737.8368530273438	299.4288024902344	-458.1161804199219	808.5706176757812	294.1782836914062	-673.2476196289062	1586.683837890625	46.81227493286133	-466.3602905273438	1583.965209960938	28.59663391113281	-523.803466796875	1581.605224609375	111.409309387207	-614.1448364257812	1588.713500976562	-84.712646484375	-557.0402221679688	899.3370971679688	-176.2291870117188	-724.039306640625	900.5448608398438	121.606330871582	-609.7681884765625	927.9708251953125	136.7462768554688	-482.1165466308594	929.9319458007812	-65.40817260742188	-379.9518432617188	470.3414916992188	-111.5969924926758	-275.7279663085938	51.45135879516602	-94.56425476074219	-321.2097473144531	263.9132385253906	-117.3348846435547	-138.1650390625	125.644172668457	52.70837020874023	-211.2145690917969	89.65922546386719	58.67773056030273	-165.4743194580078	91.23673248291016	-46.35801696777344	-335.6115417480469	35.26242446899414	-51.17286682128906	-690.8920288085938	435.2021789550781	73.69808959960938	-655.7507934570312	681.979736328125	130.2854766845703	-807.685302734375	53.78559494018555	-50.83520126342773	-695.9668579101562	315.3322448730469	40.02107238769531	-608.6287231445312	43.01125335693359	-37.66985321044922	-647.6715698242188	40.10107040405273	-95.67965698242188	-720.244140625	39.20534133911133	-1.481374979019165	-838.736572265625	60.89673233032227	-112.9597930908203	-743.9814453125	954.4462280273438	-11.80136203765869	-516.4292602539062	787.2193603515625	329.2532043457031	-428.4744262695312	596.6128540039062	-138.9267730712891	-480.1029968261719	629.5743408203125	-180.6151733398438	nan	nan	nan	nan	nan	nan	nan	nan	nan	nan	nan	nan	nan	nan	nan	nan	nan	nan	nan	nan	nan	nan	nan	nan	
280	2.79	-673.144287109375	951.3916625976562	-125.5552368164062	-713.8567504882812	1008.278381347656	-60.28827285766602	-505.2847290039062	1198.83935546875	42.68735122680664	-726.1146240234375	1129.785034179688	-68.2362060546875	-680.128173828125	1377.729858398438	-57.06293487548828	-543.8338623046875	1323.887817382812	20.15268707275391	-751.23046875	1237.34716796875	-18.53157806396484	-643.7709350585938	1342.073364257812	-151.4709167480469	-542.6505737304688	1360.566040039062	-163.4243927001953	-537.3237915039062	1241.767944335938	-235.7852783203125	-532.7654418945312	1038.0146484375	-248.1467437744141	-611.2427368164062	1028.065551757812	-216.2223815917969	-464.1661376953125	791.5656127929688	-180.9552307128906	-484.7407836914062	782.7114868164062	-246.3346405029297	-520.2720947265625	932.6888427734375	-253.3435974121094	-493.5557556152344	712.8776245117188	-243.4340362548828	-451.7616271972656	711.97216796875	-193.8878631591797	-705.9041137695312	1366.09521484375	112.8762283325195	-740.5634155273438	1301.40087890625	165.7258911132812	-716.3982543945312	1043.861694335938	244.2884368896484	-719.0662841796875	1021.4521484375	152.701416015625	-518.1172485351562	884.4683227539062	261.0960693359375	-561.10595703125	854.0718994140625	318.3172912597656	-676.2808837890625	988.7779541015625	271.115966796875	-432.7951049804688	737.4151000976562	303.2146301269531	-453.0772399902344	807.9644165039062	297.666015625	-665.8158569335938	1585.05517578125	48.48402786254883	-458.7026672363281	1582.38671875	32.31731796264648	-516.9584350585938	1580.034790039062	114.5911254882812	-605.4317626953125	1587.029541015625	-82.44397735595703	-546.56494140625	897.43505859375	-173.5399627685547	-717.4616088867188	899.2667846679688	122.1724014282227	-603.3452758789062	926.2167358398438	139.0185546875	-473.3117065429688	928.1093139648438	-61.63169097900391	-369.8091430664062	468.8001098632812	-107.1965560913086	-258.8849182128906	51.65512084960938	-84.37615203857422	-307.8289184570312	263.6255798339844	-110.4717025756836	-125.4730987548828	129.4947204589844	65.02218627929688	-198.1197357177734	92.91912841796875	69.89350128173828	-149.9050903320312	93.26864624023438	-34.35039138793945	-319.5687866210938	35.60493469238281	-42.01874923706055	-687.2958984375	434.2124633789062	74.94668579101562	-651.5794067382812	681.2581176757812	132.5252838134766	-807.3439331054688	54.3150520324707	-51.19003295898438	-693.289794921875	314.4646301269531	40.6915168762207	-608.4921875	42.83251571655273	-37.63212966918945	-647.432373046875	39.96009063720703	-95.82588958740234	-720.0625610351562	39.3803825378418	-1.590200066566467	-838.3489990234375	61.78433227539062	-113.322624206543	-735.6343994140625	952.9268188476562	-11.5766487121582	-511.4100952148438	786.4190063476562	332.3785400390625	-418.4154968261719	594.8893432617188	-135.2669219970703	-470.8045959472656	627.4720458984375	-178.5636596679688	nan	nan	nan	nan	nan	nan	nan	nan	nan	nan	nan	nan	nan	nan	nan	nan	nan	nan	nan	nan	nan	nan	nan	nan	
281	2.8	-663.4135131835938	949.57421875	-124.5634536743164	-704.8909301757812	1006.665771484375	-59.73390197753906	-497.8895874023438	1197.012451171875	46.42670440673828	-717.2700805664062	1128.176879882812	-67.77377319335938	-671.3361206054688	1376.103515625	-55.74670028686523	-536.0823364257812	1322.089233398438	23.42350387573242	-742.9131469726562	1235.683959960938	-18.32395362854004	-633.4005737304688	1340.39892578125	-149.6226348876953	-532.1785888671875	1358.787109375	-160.1463317871094	-525.83935546875	1240.008544921875	-232.5115051269531	-521.5153198242188	1036.291748046875	-245.3749847412109	-600.2302856445312	1026.327514648438	-214.3011779785156	-453.6610412597656	789.5375366210938	-178.4360198974609	-474.1434631347656	780.865478515625	-243.8979034423828	-509.15673828125	930.9351806640625	-250.8154144287109	-483.3908386230469	711.0761108398438	-241.1552734375	-441.7581787109375	709.8010864257812	-191.4320678710938	-699.4422607421875	1364.27880859375	113.8835983276367	-734.8973999023438	1299.541015625	166.1428070068359	-712.0541381835938	1041.996948242188	245.1359710693359	-713.6066284179688	1019.526672363281	153.5294189453125	-513.5460205078125	883.2164306640625	263.9588012695312	-556.8796997070312	852.719482421875	320.823974609375	-672.03955078125	987.0340576171875	272.4136047363281	-427.9930725097656	736.5924682617188	307.0686340332031	-448.5711364746094	806.9883422851562	301.2295532226562	-658.2969360351562	1583.460327148438	50.14372634887695	-450.9635620117188	1580.844116210938	36.06591796875	-510.05615234375	1578.512329101562	117.7914733886719	-596.6072998046875	1585.369995117188	-80.16179656982422	-536.1317749023438	895.6325073242188	-170.8903045654297	-710.7306518554688	897.9385986328125	122.7708358764648	-597.0942993164062	924.1973266601562	140.9454345703125	-464.5239868164062	926.3615112304688	-57.95995712280273	-359.1534118652344	467.670166015625	-102.1500396728516	-244.7090301513672	51.57952880859375	-75.48720550537109	-295.4773559570312	263.1933898925781	-103.8418884277344	-114.9446029663086	131.5453491210938	75.97161102294922	-187.3030548095703	94.68796539306641	79.75337219238281	-136.8561401367188	94.2115478515625	-23.68843650817871	-306.1839904785156	35.777099609375	-34.1634407043457	-683.52587890625	433.2281188964844	76.08197021484375	-647.3796997070312	680.6610107421875	134.8930511474609	-806.966796875	54.9227409362793	-51.58936309814453	-690.492431640625	313.6094360351562	41.27526092529297	-608.33984375	42.68927764892578	-37.59027099609375	-647.1617431640625	39.83469390869141	-95.98650360107422	-719.8618774414062	39.6081428527832	-1.720706939697266	-837.920166015625	62.78074264526367	-113.7305603027344	-727.2368774414062	951.3678588867188	-11.28475952148438	-506.9961242675781	785.2979736328125	335.4568176269531	-407.6169738769531	593.6863403320312	-131.0058288574219	-461.228515625	625.4085083007812	-176.468994140625	nan	nan	nan	nan	nan	nan	nan	nan	nan	nan	nan	nan	nan	nan	nan	nan	nan	nan	nan	nan	nan	nan	nan	nan	
282	2.81	-653.7361450195312	947.7775268554688	-123.5335845947266	-695.8837890625	1005.110778808594	-59.12961578369141	-490.4307250976562	1195.212890625	50.16277694702148	-708.2911376953125	1126.627197265625	-67.2227783203125	-662.4239501953125	1374.545288085938	-54.40912628173828	-528.2470703125	1320.329345703125	26.70570945739746	-734.4497680664062	1234.082275390625	-18.10738945007324	-622.9028930664062	1338.799072265625	-147.7378234863281	-521.607666015625	1357.073364257812	-156.8154449462891	-514.1882934570312	1238.315795898438	-229.1739349365234	-510.0689086914062	1034.636840820312	-242.5858917236328	-589.0143432617188	1024.65625	-212.4355163574219	-442.8880920410156	787.6146240234375	-175.9047088623047	-463.2925415039062	779.0836791992188	-241.4392547607422	-497.8107299804688	929.2494506835938	-248.2855834960938	-472.9443359375	709.3369140625	-238.8032379150391	-431.5107116699219	707.7118530273438	-188.9073791503906	-692.8514404296875	1362.51806640625	114.8798828125	-729.130615234375	1297.742919921875	166.5139770507812	-707.833740234375	1040.133544921875	245.7588043212891	-708.16796875	1017.662048339844	154.1403656005859	-509.3760070800781	881.720703125	266.8521423339844	-553.1663208007812	851.1109008789062	323.2293701171875	-668.0302734375	985.2247924804688	273.5115661621094	-423.8368835449219	735.3629760742188	310.9816589355469	-444.6101684570312	805.6470336914062	304.8599853515625	-650.686767578125	1581.919555664062	51.79425430297852	-443.1465759277344	1579.356323242188	39.84825897216797	-503.0991516113281	1577.055786132812	121.0111770629883	-587.6682739257812	1583.759765625	-77.86278533935547	-525.728515625	893.9701538085938	-168.2661895751953	-703.83544921875	896.57275390625	123.4027481079102	-591.1076049804688	921.8790893554688	142.4077453613281	-455.726318359375	924.733642578125	-54.38920211791992	-348.0410766601562	466.9421691894531	-96.43537139892578	-233.0642395019531	51.16914367675781	-67.99716186523438	-284.0904541015625	262.5729675292969	-97.43550109863281	-106.4710006713867	131.6746826171875	85.60585784912109	-178.6798858642578	94.82260131835938	88.23811340332031	-126.2096252441406	93.99210357666016	-14.36888885498047	-295.3394165039062	35.68799209594727	-27.74449729919434	-679.5497436523438	432.2628784179688	77.09799957275391	-643.0744018554688	680.167236328125	137.3141326904297	-806.5521240234375	55.62935256958008	-52.02447509765625	-687.5557250976562	312.7782592773438	41.78374099731445	-608.1683349609375	42.58044815063477	-37.54386901855469	-646.861572265625	39.74066162109375	-96.15315246582031	-719.6394653320312	39.89306259155273	-1.865859985351562	-837.4452514648438	63.90773773193359	-114.1745910644531	-718.7764892578125	949.8018798828125	-10.91660308837891	-503.2131042480469	783.8602905273438	338.4734802246094	-396.1669921875	593.0208129882812	-126.1292953491211	-451.336181640625	623.4384155273438	-174.2719116210938	nan	nan	nan	nan	nan	nan	nan	nan	nan	nan	nan	nan	nan	nan	nan	nan	nan	nan	nan	nan	nan	nan	nan	nan	
